<svg xmlns="http://www.w3.org/2000/svg" width="0" height="0" opacity="0" style="position: absolute; z-index: -1;">

  <!-- Logo Full -->
  <symbol id="icon-logo-full" viewBox="0 0 117 40">
    <defs>
      <linearGradient id="logo-full-a" x1="21.191%" x2="97.099%" y1="74.716%" y2="9.588%">
        <stop offset="0%" stop-color="#8B4996"/>
        <stop offset="39%" stop-color="#553189"/>
      </linearGradient>
    </defs>
    <g fill="none" fill-rule="evenodd">
      <path fill="#2D2B2B" fill-rule="nonzero" d="M9.329 25.519V13.62h1.939l.135 1.16a3.329 3.329 0 0 1 2.712-1.356 4.197 4.197 0 0 1 4.305 4.393c0 2.454-1.545 4.393-4.237 4.393-.888 0-2.197-.271-2.793-1.193v4.495l-2.061.007zm7.03-7.695a2.386 2.386 0 1 0-4.745.508 2.386 2.386 0 0 0 4.745-.508zm5.363-4.204l.156.97a2.475 2.475 0 0 1 2.366-1.193 3.186 3.186 0 0 1 2.163.8l-.943 1.81a2.034 2.034 0 0 0-1.498-.55 1.932 1.932 0 0 0-2.088 2.13v4.427h-2.081V13.62h1.925zm13.64 4.204a4.373 4.373 0 1 1-4.393-4.4 4.244 4.244 0 0 1 4.394 4.4zm-6.664 0a2.292 2.292 0 1 0 4.57 0 2.366 2.366 0 0 0-2.285-2.482 2.305 2.305 0 0 0-2.285 2.482zm7.899 7.695V13.62h1.939l.135 1.16a3.336 3.336 0 0 1 2.712-1.356 4.203 4.203 0 0 1 4.312 4.393c0 2.454-1.553 4.393-4.244 4.393-.882 0-2.197-.271-2.793-1.193v4.495l-2.061.007zm7.03-7.695a2.386 2.386 0 1 0-4.746.508 2.386 2.386 0 0 0 4.746-.508zm9.64 4.19V17.62c0-1.274-.677-2.244-2.033-2.244a2.203 2.203 0 0 0-2.142 2.346v4.292h-2.034V13.6h1.857l.136 1.146a3.783 3.783 0 0 1 2.76-1.261c1.972 0 3.558 1.478 3.558 4.122v4.407h-2.101zm12.041-4.19a4.373 4.373 0 1 1-4.393-4.373 4.244 4.244 0 0 1 4.393 4.373zm-6.664 0a2.292 2.292 0 1 0 4.57 0 2.366 2.366 0 0 0-2.285-2.482 2.305 2.305 0 0 0-2.285 2.482zM73.92 13.6l1.837 6.319L77.68 13.6h2.305l-2.928 8.447h-2.414l-.868-2.488-.752-2.806-.746 2.806-.875 2.488H68.99L66.04 13.6h2.32l1.925 6.319 1.817-6.319h1.817zm10.047 7.342a1.227 1.227 0 1 1-2.454 0 1.227 1.227 0 0 1 2.454 0zm8.495 0a4.353 4.353 0 0 1-3.24 1.356c-2.435 0-4.462-1.464-4.462-4.447s2.034-4.44 4.461-4.44a3.98 3.98 0 0 1 3.03 1.24l-1.308 1.356a2.529 2.529 0 0 0-1.688-.678 2.36 2.36 0 0 0-2.413 2.481 2.292 2.292 0 0 0 2.38 2.454 2.55 2.55 0 0 0 1.843-.678l1.397 1.356zm9.261-3.118a4.373 4.373 0 1 1-4.393-4.373 4.244 4.244 0 0 1 4.393 4.373zm-6.658 0a2.292 2.292 0 1 0 4.563 0 2.366 2.366 0 0 0-2.285-2.482 2.298 2.298 0 0 0-2.278 2.482zm13.499 4.19v-4.522c0-1.106-.577-2.109-1.722-2.109-1.146 0-1.77 1.03-1.77 2.109v4.494h-2.081V13.6h1.925l.156 1.024a2.42 2.42 0 0 1 2.21-1.16 2.522 2.522 0 0 1 2.488 1.567 3.037 3.037 0 0 1 2.807-1.533c2.387 0 3.56 1.465 3.56 3.987v4.529h-2.075v-4.522c0-1.106-.461-2.034-1.586-2.034a1.912 1.912 0 0 0-1.824 2.074v4.495l-2.088-.013z"/>
      <path fill="url(#logo-full-a)" d="M39.959 10.407V.041H0v39.952h39.959V28.427h-4.596v6.956H4.617V4.658h30.746v5.749z"/>
    </g>
  </symbol>

  <!-- Area Icon -->
  <symbol id="icon-area" viewBox="0 0 25 25">
    <path d="M14.216 14.205l-1.85-1.849h5.158v5.158l-1.849-1.85-3.308 3.308-2.063-2.063-2.063 2.063-1.46-1.458 3.523-3.522 2.063 2.063 1.85-1.85zM1.673 12.123L.367 10.526l12-9.818 12 9.818-1.307 1.597-10.693-8.75-10.694 8.75zM19.587 22.67V12.356h2.064v12.378H3.083V12.356h2.063v10.315h14.441z"/>
  </symbol>

  <!-- Bath Icon -->
  <symbol id="icon-bath" viewBox="0 0 24 24">
    <path d="M19 14H2v2a3 3 0 0 0 3 3h14a3 3 0 0 0 3-3v-2h-3zm-2-2V4.5a2.5 2.5 0 1 0-5 0V6h-2V4.5a4.5 4.5 0 1 1 9 0V12h5v4a5 5 0 0 1-5 5v3h-2v-3H7v3H5v-3a5 5 0 0 1-5-5v-4h17z"/>
  </symbol>

  <!-- Bed Icon -->
  <symbol id="icon-bed" viewBox="0 0 24 19">
    <path d="M11 7V4H4v3h7zm2 0h7V4h-7v3zm0 2H2v4h20V9h-9zM4 2h16V0h2v7h2v12h-2v-4H2v4H0V7h2V0h2v2z"/>
  </symbol>

  <!-- Check Icon -->
  <symbol id="icon-check" viewBox="0 0 12 10">
    <path fill-rule="evenodd" d="M4.174 9.391L0 5.217l1.565-1.565 2.609 2.609L10.435 0 12 1.565z"/>
  </symbol>

  <!-- Chevron Down Icon -->
  <symbol id="icon-chevron-down" viewBox="0 0 12 8">
    <path d="M6 4.586l4-4L11.414 2 6 7.414.586 2 2 .586z"/>
  </symbol>

  <!-- Chevron Left Icon -->
  <symbol id="icon-chevron-left" viewBox="0 0 8 12">
    <path d="M3.414 6l4 4L6 11.414.586 6 6 .586 7.414 2z"/>
  </symbol>

  <!-- Chevron Right Icon -->
  <symbol id="icon-chevron-right" viewBox="0 0 8 12">
    <path d="M4.586 6l-4-4L2 .586 7.414 6 2 11.414.586 10z"/>
  </symbol>

  <!-- Close Icon -->
  <symbol id="icon-close" viewBox="0 0 8 8">
    <path fill-rule="evenodd" d="M7.754.234a.799.799 0 0 0-1.13 0L3.993 2.865 1.36.235a.799.799 0 0 0-1.13 1.129l2.632 2.631L.232 6.626a.799.799 0 1 0 1.13 1.13l2.63-2.631 2.632 2.631a.799.799 0 0 0 1.13-1.13l-2.631-2.63 2.63-2.632a.799.799 0 0 0 0-1.13z"/>
  </symbol>

  <!-- Email Icon -->
  <symbol id="icon-email" viewBox="0 0 38 25">
    <path d="M19 15.462l17.308-15H1.692l17.308 15zm-4.675-1.66L19 17.637l4.602-3.837 12.706 10.891H1.692l12.633-10.89zM.538 23.537V1.615l12.693 10.962L.538 23.538zm36.924 0V1.615L24.769 12.577l12.693 10.961z"/>
  </symbol>

  <!-- Facebook Icon -->
  <symbol id="icon-facebook" viewBox="0 0 13 25">
    <path fill-rule="evenodd" d="M3.385 24.73V12.715H.943V8.731h2.442V6.322c0-3.249.972-5.591 4.53-5.591h4.231v3.975h-2.98c-1.492 0-1.832.991-1.832 2.03V8.73h4.592l-.627 3.983H7.334v12.017H3.385z"/>
  </symbol>

  <!-- Hamburger Icon -->
  <symbol id="icon-hamburger" viewBox="0 0 24 16">
    <path d="M0 9V7h24v2H0zm0-7V0h24v2H0zm11 14v-2h13v2H11z"/>
  </symbol>

  <!-- Heart Icon -->
  <symbol id="icon-heart" viewBox="0 0 24 24">
    <path d="M17 0c3.852 0 7 3.148 7 7 0 1.623-.661 3.426-1.865 5.396-.984 1.61-2.31 3.298-3.898 5.03a59.963 59.963 0 0 1-3.846 3.814 58.309 58.309 0 0 1-1.758 1.534l-.633.518-.633-.518a58.309 58.309 0 0 1-1.758-1.534 59.963 59.963 0 0 1-3.846-3.814c-1.587-1.732-2.914-3.42-3.898-5.03C.661 10.426 0 8.623 0 7c0-3.852 3.148-7 7-7 1.917 0 3.688.79 5 2.13C13.312.79 15.083 0 17 0zm-3.954 19.76a57.995 57.995 0 0 0 3.717-3.686c1.507-1.643 2.758-3.236 3.665-4.72C21.458 9.668 22 8.19 22 7c0-2.748-2.252-5-5-5-1.677 0-3.205.854-4.176 2.267L12 5.465l-.824-1.198C10.205 2.854 8.676 2 7 2 4.252 2 2 4.252 2 7c0 1.19.542 2.668 1.572 4.354.907 1.484 2.158 3.077 3.665 4.72a57.995 57.995 0 0 0 3.717 3.686c.373.34.724.65 1.046.929.322-.279.673-.59 1.046-.929z"/>
  </symbol>

  <!-- House Icon -->
  <symbol id="icon-house" viewBox="0 0 25 25">
    <path d="M11.335 22.671h2.063v-4.126h-2.063v4.126zm-2.063 0v-6.189h6.19v6.19h4.125V12.355h2.064v12.378H3.083V12.356h2.063v10.315h4.126zM1.673 12.123L.367 10.526l12-9.818 12 9.818-1.307 1.597-10.693-8.75-10.694 8.75z"/>
  </symbol>

  <!-- LinkedIn Icon -->
  <symbol id="icon-linkedin" viewBox="0 0 25 25">
    <path d="M5.087 24.047V8.245H.204v15.802h4.883zm0-21.402C5.058 1.23 4.116.154 2.585.154 1.053.154.053 1.23.053 2.644c0 1.384.971 2.492 2.473 2.492h.03c1.56 0 2.531-1.108 2.531-2.491zm7.968 21.402v-9.003c0-.482.035-.964.177-1.307.387-.963 1.268-1.96 2.749-1.96 1.939 0 3.155 1.1 3.155 3.267v9.003h4.917v-9.244c0-4.952-2.643-7.256-6.17-7.256-2.89 0-4.16 1.616-4.864 2.716l.036-2.113H8.146c.07 1.513 0 15.897 0 15.897h4.909z"/>
  </symbol>

  <!-- Location Icon -->
  <symbol id="icon-location" viewBox="0 0 18 24">
    <path d="M9.506 19.99a51.695 51.695 0 0 0 2.697-3.257c.935-1.233 1.737-2.426 2.363-3.545C15.501 11.517 16 10.084 16 9c0-4.126-3.19-7-7-7S2 4.874 2 9c0 1.084.5 2.517 1.434 4.188.626 1.12 1.428 2.312 2.363 3.545A51.695 51.695 0 0 0 9 20.546c.16-.174.33-.36.506-.556zM18 9c0 1.495-.602 3.222-1.689 5.164-.675 1.208-1.527 2.476-2.514 3.778a53.665 53.665 0 0 1-4.086 4.76L9 23.424l-.711-.72a51.25 51.25 0 0 1-1.283-1.377 53.665 53.665 0 0 1-2.803-3.384c-.987-1.302-1.839-2.57-2.514-3.778C.602 12.222 0 10.494 0 9c0-5.28 4.13-9 9-9s9 3.72 9 9zm-9 4a4 4 0 1 1 0-8 4 4 0 0 1 0 8zm0-2a2 2 0 1 0 0-4 2 2 0 0 0 0 4z"/>
  </symbol>

  <!-- Pinterest Icon -->
  <symbol id="icon-pinterest" viewBox="0 0 24 24">
    <path d="M12 0C5.4 0 0 5.4 0 12c0 5.1 3.2 9.4 7.6 11.2-.1-.9-.2-2.4 0-3.4.2-.9 1.4-6 1.4-6s-.3-.8-.3-1.8c0-1.7 1-2.9 2.2-2.9 1 0 1.5.8 1.5 1.7 0 1-.7 2.6-1 4-.3 1.2.6 2.2 1.8 2.2 2.1 0 3.8-2.2 3.8-5.5 0-2.9-2.1-4.9-5-4.9-3.4 0-5.4 2.6-5.4 5.2 0 1 .4 2.1.9 2.7.1.1.1.2.1.3-.1.4-.3 1.2-.3 1.4-.1.2-.2.3-.4.2-1.5-.7-2.4-2.9-2.4-4.6 0-3.8 2.8-7.3 7.9-7.3 4.2 0 7.4 3 7.4 6.9 0 4.1-2.6 7.5-6.2 7.5-1.2 0-2.4-.6-2.8-1.4 0 0-.6 2.3-.7 2.9-.3 1-1 2.3-1.5 3.1 1 .3 2.2.5 3.4.5 6.6 0 12-5.4 12-12S18.6 0 12 0z"/>
  </symbol>

  <!-- Plan Icon -->
  <symbol id="icon-plan" viewBox="0 0 24 24">
    <path d="M10 3.387V19.28l4 1.334V4.72l-4-1.334zM8 19.22V3.281l-6 1.5v15.938l6-1.5zm8-14.438V20.72l6-1.5V3.281l-6 1.5zM8.96 21.04L0 23.28V3.219L9.04.96l6 2L24 .72v20.062l-9.04 2.26-6-2z"/>
  </symbol>

  <!-- Profile Icon -->
  <symbol id="icon-profile" viewBox="0 0 24 24">
    <path d="M18 20v-.259a2 2 0 0 0-1.009-1.737l-2.712-1.552A4.978 4.978 0 0 1 12 17a4.978 4.978 0 0 1-2.282-.55l-2.71 1.554A2 2 0 0 0 6 19.741v.26A9.956 9.956 0 0 0 12 22a9.956 9.956 0 0 0 6-2zm1.743-1.67A9.959 9.959 0 0 0 22 12c0-5.523-4.477-10-10-10S2 6.477 2 12c0 2.401.846 4.605 2.257 6.33a3.996 3.996 0 0 1 1.757-2.061L8.07 15.09A4.979 4.979 0 0 1 7 12v-2a5 5 0 0 1 10 0v2c0 1.167-.4 2.241-1.07 3.092l2.054 1.176a3.999 3.999 0 0 1 1.759 2.061zM12 15a3 3 0 0 0 3-3v-2a3 3 0 0 0-6 0v2a3 3 0 0 0 3 3zm0 9C5.373 24 0 18.627 0 12S5.373 0 12 0s12 5.373 12 12-5.373 12-12 12z"/>
  </symbol>

  <!-- Search Icon -->
  <symbol id="icon-search" viewBox="0 0 24 24">
    <path d="M16.737 18.187A10.208 10.208 0 0 1 10.25 20.5C4.59 20.5 0 15.911 0 10.25 0 4.59 4.59 0 10.25 0 15.911 0 20.5 4.59 20.5 10.25c0 2.462-.867 4.72-2.313 6.487L24 22.55 22.55 24l-5.813-5.813zm-6.487.263a8.2 8.2 0 1 0 0-16.4 8.2 8.2 0 0 0 0 16.4z"/>
  </symbol>

  <!-- Twitter Icon -->
  <symbol id="icon-twitter" viewBox="0 0 24 20">
    <path d="M24 2.6c-.9.4-1.8.7-2.8.8 1-.6 1.8-1.6 2.2-2.7-1 .6-2 1-3.1 1.2-.9-1-2.2-1.6-3.6-1.6-2.7 0-4.9 2.2-4.9 4.9 0 .4 0 .8.1 1.1-4.2-.2-7.8-2.2-10.2-5.2-.5.8-.7 1.6-.7 2.5 0 1.7.9 3.2 2.2 4.1-.8 0-1.6-.2-2.2-.6v.1c0 2.4 1.7 4.4 3.9 4.8-.4.1-.8.2-1.3.2-.3 0-.6 0-.9-.1.6 2 2.4 3.4 4.6 3.4-1.7 1.3-3.8 2.1-6.1 2.1-.4 0-.8 0-1.2-.1 2.2 1.4 4.8 2.2 7.5 2.2 9.1 0 14-7.5 14-14v-.6c1-.7 1.8-1.6 2.5-2.5z"/>
  </symbol>

  <!-- WhatsApp Icon -->
  <symbol id="icon-whatsapp" viewBox="0 0 24 24">
    <path d="M.054 24l1.687-6.163a11.869 11.869 0 0 1-1.588-5.945C.156 5.335 5.493 0 12.05 0c3.182.001 6.17 1.24 8.415 3.488a11.819 11.819 0 0 1 3.481 8.413c-.002 6.557-5.34 11.893-11.896 11.893h-.005c-1.99-.001-3.947-.5-5.685-1.448L.054 24zm6.598-3.807l.361.214a9.875 9.875 0 0 0 5.033 1.378h.004c5.45 0 9.886-4.434 9.888-9.884a9.824 9.824 0 0 0-2.894-6.994 9.823 9.823 0 0 0-6.99-2.898c-5.454 0-9.89 4.434-9.892 9.884a9.86 9.86 0 0 0 1.512 5.26l.235.374-.999 3.648 3.742-.982zM9.077 6.92c.247.595.842 2.058.916 2.207.074.148.124.322.025.52-.1.199-.149.323-.297.496-.149.174-.312.388-.446.52-.149.149-.304.31-.13.607.173.298.77 1.27 1.653 2.059 1.135 1.012 2.093 1.326 2.39 1.475.298.148.471.124.645-.075.173-.198.743-.867.94-1.165.199-.297.397-.248.67-.149.272.1 1.733.818 2.03.967.298.149.496.223.57.347.075.124.075.72-.173 1.413-.248.694-1.435 1.328-2.006 1.413-.513.077-1.16.109-1.873-.117-.431-.137-.985-.32-1.694-.626-2.982-1.288-4.93-4.29-5.078-4.487-.149-.199-1.214-1.612-1.214-3.074 0-1.463.768-2.182 1.04-2.48.273-.297.595-.371.793-.371.198 0 .397.002.57.01.182.01.427-.069.669.51z"/>
  </symbol>

  <!-- YouTube Icon -->
  <symbol id="icon-youtube" viewBox="0 0 24 18">
    <path d="M23.8 4.2s-.2-1.7-1-2.4c-.9-1-1.9-1-2.4-1C17 .6 12 .6 12 .6s-5 0-8.4.2c-.5.1-1.5.1-2.4 1-.7.7-1 2.4-1 2.4S0 6.1 0 8.1v1.8c0 1.9.2 3.9.2 3.9s.2 1.7 1 2.4c.9 1 2.1.9 2.6 1 1.9.2 8.2.2 8.2.2s5 0 8.4-.3c.5-.1 1.5-.1 2.4-1 .7-.7 1-2.4 1-2.4s.2-1.9.2-3.9V8c0-1.9-.2-3.8-.2-3.8zM9.5 12.1V5.4L16 8.8l-6.5 3.3z"/>
  </symbol>

</svg>
