<svg xmlns="http://www.w3.org/2000/svg" viewBox="0 0 24 24">
  <path d="M17 0c3.852 0 7 3.148 7 7 0 1.623-.661 3.426-1.865 5.396-.984 1.61-2.31 3.298-3.898 5.03a59.963 59.963 0 0 1-3.846 3.814 58.309 58.309 0 0 1-1.758 1.534l-.633.518-.633-.518a58.309 58.309 0 0 1-1.758-1.534 59.963 59.963 0 0 1-3.846-3.814c-1.587-1.732-2.914-3.42-3.898-5.03C.661 10.426 0 8.623 0 7c0-3.852 3.148-7 7-7 1.917 0 3.688.79 5 2.13C13.312.79 15.083 0 17 0zm-3.954 19.76a57.995 57.995 0 0 0 3.717-3.686c1.507-1.643 2.758-3.236 3.665-4.72C21.458 9.668 22 8.19 22 7c0-2.748-2.252-5-5-5-1.677 0-3.205.854-4.176 2.267L12 5.465l-.824-1.198C10.205 2.854 8.676 2 7 2 4.252 2 2 4.252 2 7c0 1.19.542 2.668 1.572 4.354.907 1.484 2.158 3.077 3.665 4.72a57.995 57.995 0 0 0 3.717 3.686c.373.34.724.65 1.046.929.322-.279.673-.59 1.046-.929z"/>
</svg>
