<svg xmlns="http://www.w3.org/2000/svg" viewBox="0 0 24 24">
  <path d="M18 20v-.259a2 2 0 0 0-1.009-1.737l-2.712-1.552A4.978 4.978 0 0 1 12 17a4.978 4.978 0 0 1-2.282-.55l-2.71 1.554A2 2 0 0 0 6 19.741v.26A9.956 9.956 0 0 0 12 22a9.956 9.956 0 0 0 6-2zm1.743-1.67A9.959 9.959 0 0 0 22 12c0-5.523-4.477-10-10-10S2 6.477 2 12c0 2.401.846 4.605 2.257 6.33a3.996 3.996 0 0 1 1.757-2.061L8.07 15.09A4.979 4.979 0 0 1 7 12v-2a5 5 0 0 1 10 0v2c0 1.167-.4 2.241-1.07 3.092l2.054 1.176a3.999 3.999 0 0 1 1.759 2.061zM12 15a3 3 0 0 0 3-3v-2a3 3 0 0 0-6 0v2a3 3 0 0 0 3 3zm0 9C5.373 24 0 18.627 0 12S5.373 0 12 0s12 5.373 12 12-5.373 12-12 12z"/>
</svg>
