<svg xmlns="http://www.w3.org/2000/svg" viewBox="0 0 18 24">
  <path d="M9.506 19.99a51.695 51.695 0 0 0 2.697-3.257c.935-1.233 1.737-2.426 2.363-3.545C15.501 11.517 16 10.084 16 9c0-4.126-3.19-7-7-7S2 4.874 2 9c0 1.084.5 2.517 1.434 4.188.626 1.12 1.428 2.312 2.363 3.545A51.695 51.695 0 0 0 9 20.546c.16-.174.33-.36.506-.556zM18 9c0 1.495-.602 3.222-1.689 5.164-.675 1.208-1.527 2.476-2.514 3.778a53.665 53.665 0 0 1-4.086 4.76L9 23.424l-.711-.72a51.25 51.25 0 0 1-1.283-1.377 53.665 53.665 0 0 1-2.803-3.384c-.987-1.302-1.839-2.57-2.514-3.778C.602 12.222 0 10.494 0 9c0-5.28 4.13-9 9-9s9 3.72 9 9zm-9 4a4 4 0 1 1 0-8 4 4 0 0 1 0 8zm0-2a2 2 0 1 0 0-4 2 2 0 0 0 0 4z"/>
</svg>
