<svg xmlns="http://www.w3.org/2000/svg" viewBox="0 0 24 24">
  <path d="M.054 24l1.687-6.163a11.869 11.869 0 0 1-1.588-5.945C.156 5.335 5.493 0 12.05 0c3.182.001 6.17 1.24 8.415 3.488a11.819 11.819 0 0 1 3.481 8.413c-.002 6.557-5.34 11.893-11.896 11.893h-.005c-1.99-.001-3.947-.5-5.685-1.448L.054 24zm6.598-3.807l.361.214a9.875 9.875 0 0 0 5.033 1.378h.004c5.45 0 9.886-4.434 9.888-9.884a9.824 9.824 0 0 0-2.894-6.994 9.823 9.823 0 0 0-6.99-2.898c-5.454 0-9.89 4.434-9.892 9.884a9.86 9.86 0 0 0 1.512 5.26l.235.374-.999 3.648 3.742-.982zM9.077 6.92c.247.595.842 2.058.916 2.207.074.148.124.322.025.52-.1.199-.149.323-.297.496-.149.174-.312.388-.446.52-.149.149-.304.31-.13.607.173.298.77 1.27 1.653 2.059 1.135 1.012 2.093 1.326 2.39 1.475.298.148.471.124.645-.075.173-.198.743-.867.94-1.165.199-.297.397-.248.67-.149.272.1 1.733.818 2.03.967.298.149.496.223.57.347.075.124.075.72-.173 1.413-.248.694-1.435 1.328-2.006 1.413-.513.077-1.16.109-1.873-.117-.431-.137-.985-.32-1.694-.626-2.982-1.288-4.93-4.29-5.078-4.487-.149-.199-1.214-1.612-1.214-3.074 0-1.463.768-2.182 1.04-2.48.273-.297.595-.371.793-.371.198 0 .397.002.57.01.182.01.427-.069.669.51z"/>
</svg>
