<svg xmlns="http://www.w3.org/2000/svg" xmlns:xlink="http://www.w3.org/1999/xlink" width="24" height="24" viewBox="0 0 24 24">
    <defs>
        <path id="a" d="M21.99 18.103h-7.703a2.006 2.006 0 0 1-2.011-1.998v-5.08c0-1.101.902-1.998 2.01-1.998h7.704c1.109 0 2.01.897 2.01 1.998v5.08a2.006 2.006 0 0 1-2.01 1.998zm-7.703-8.076c-.558 0-1.011.448-1.011.998v5.08c0 .55.454.998 1.01.998h7.704c.557 0 1.01-.448 1.01-.998v-5.08c0-.55-.453-.998-1.01-.998h-7.703zm2.135-6.218c.382-.18.795-.3 1.217-.352v-.84c0-.891-.733-1.617-1.636-1.617H2.636C1.733 1 1 1.726 1 2.618v18.765C1 22.275 1.734 23 2.635 23h13.368c.901 0 1.635-.726 1.635-1.617v-3.78a.5.5 0 1 1 1 0v3.78A2.63 2.63 0 0 1 16.003 24H2.636A2.63 2.63 0 0 1 0 21.383V2.618A2.63 2.63 0 0 1 2.635 0h13.368a2.63 2.63 0 0 1 2.636 2.618v.84c1.969.245 3.497 1.917 3.497 3.937v2.133a.5.5 0 1 1-1 0V7.395c0-1.637-1.345-2.969-2.998-2.969a2.986 2.986 0 0 0-1.867.644.502.502 0 0 1-.073.06 2.942 2.942 0 0 0-1.059 2.265v2.133a.5.5 0 1 1-1 0V7.395c0-1.13.474-2.176 1.283-2.915V3.454H3.216V18.55h12.204v-.947a.5.5 0 1 1 1 0v1.447a.5.5 0 0 1-.5.5H2.717a.5.5 0 0 1-.5-.5V2.954a.5.5 0 0 1 .5-.5h13.204a.5.5 0 0 1 .5.5v.855zm2.898 9.228c0 .492-.308.912-.741 1.086v1.856h-.88v-1.855a1.175 1.175 0 0 1-.742-1.088c0-.647.528-1.171 1.182-1.171.652 0 1.181.524 1.181 1.171zM10.29 21.8H8.348a.5.5 0 1 1 0-1h1.94a.5.5 0 1 1 0 1z"/>
    </defs>
    <g fill="none" fill-rule="evenodd">
        <mask id="b" fill="#fff">
            <use xlink:href="#a"/>
        </mask>
        <use fill="#000" fill-rule="nonzero" xlink:href="#a"/>
        <g fill="#62B3E6" fill-rule="nonzero" mask="url(#b)">
            <path d="M-4-4h32v32H-4z"/>
        </g>
    </g>
</svg>
