<svg xmlns="http://www.w3.org/2000/svg" xmlns:xlink="http://www.w3.org/1999/xlink" width="25" height="21" viewBox="0 0 25 21">
    <defs>
        <path id="a" d="M15.234 10.55c2.445 0 4.435-2.455 4.435-5.473 0-2.87-1.824-4.876-4.435-4.876-2.61 0-4.434 2.006-4.434 4.876 0 3.018 1.99 5.473 4.434 5.473zm0-8.953c1.844 0 3.083 1.398 3.083 3.48 0 2.249-1.383 4.078-3.083 4.078-1.7 0-3.082-1.83-3.082-4.078 0-2.082 1.238-3.48 3.082-3.48zm7.995 15.942c-.012-.74-.016-.928-.024-1.014-.363-3.43-3.156-5.32-7.865-5.32-.03 0-.06 0-.09.002h-.032a2.352 2.352 0 0 0-.09-.002c-4.709 0-7.502 1.89-7.864 5.32-.008.08-.013.236-.023.926l-.006.393c0 .017.003.032.003.048.002.025.003.05.007.074.003.023.008.044.014.066l.018.065.027.062.03.06c.012.02.025.037.038.055.013.018.026.036.041.053.016.018.034.034.052.05.011.011.021.024.034.034 2.175 1.723 4.777 2.597 7.734 2.597 2.876 0 5.54-.892 7.711-2.578a.007.007 0 0 0 .002-.002l.02-.014c.012-.01.022-.022.034-.033.018-.017.037-.033.054-.052.015-.017.028-.035.04-.052.014-.018.027-.036.039-.055.011-.02.02-.04.03-.061.01-.02.02-.04.027-.061.008-.022.013-.044.019-.065.005-.022.011-.043.015-.066.004-.025.004-.05.006-.075 0-.016.004-.032.004-.048l-.005-.307zm-7.995 2.074c-2.531 0-4.763-.709-6.642-2.104v-.036c.005-.291.012-.732.016-.797.355-3.368 3.742-4.076 6.52-4.076l.092.003h.03l.09-.003c2.778 0 6.165.708 6.52 4.06.005.081.012.538.017.846-1.888 1.379-4.176 2.107-6.643 2.107zm-6.296-9.76a.687.687 0 0 0-.676-.698H5.153v-3.21a.687.687 0 0 0-.676-.697.687.687 0 0 0-.676.698v3.209H.692a.687.687 0 0 0-.676.698c0 .385.303.697.676.697h3.11v3.21c0 .385.302.697.675.697a.687.687 0 0 0 .676-.697v-3.21h3.11a.687.687 0 0 0 .675-.697z"/>
    </defs>
    <g fill="none" fill-rule="evenodd" transform="translate(.875)">
        <mask id="b" fill="#fff">
            <use xlink:href="#a"/>
        </mask>
        <use fill="#000" fill-rule="nonzero" xlink:href="#a"/>
        <g fill="#62B3E6" fill-rule="nonzero" mask="url(#b)">
            <path d="M-3.875-5h31v32h-31z"/>
        </g>
    </g>
</svg>
